<svg width="521" height="103" viewBox="0 0 521 103" fill="none" xmlns="http://www.w3.org/2000/svg">
<path d="M0 31.069H521V90.931H0V31.069Z" fill="#FFD84C"/>
<path d="M132.234 31.069C132.234 37.7345 117.433 43.1379 99.1751 43.1379C80.9175 43.1379 66.1168 37.7345 66.1168 31.069C66.1168 24.4035 80.9175 19 99.1751 19C117.433 19 132.234 24.4035 132.234 31.069Z" fill="#FFD84C"/>
<path d="M198.35 31.069C198.35 37.7345 183.55 43.1379 165.292 43.1379C147.034 43.1379 132.234 37.7345 132.234 31.069C132.234 24.4035 147.034 19 165.292 19C183.55 19 198.35 24.4035 198.35 31.069Z" fill="#FFD84C"/>
<path d="M521 31.069C521 37.7345 506.199 43.1379 487.942 43.1379C469.684 43.1379 454.883 37.7345 454.883 31.069C454.883 24.4035 469.684 19 487.942 19C506.199 19 521 24.4035 521 31.069Z" fill="#FFD84C"/>
<path d="M454.883 31.069C454.883 37.7345 440.083 43.1379 421.825 43.1379C403.567 43.1379 388.767 37.7345 388.767 31.069C388.767 24.4035 403.567 19 421.825 19C440.083 19 454.883 24.4035 454.883 31.069Z" fill="#FFD84C"/>
<path d="M389.428 31.069C389.428 37.7345 374.627 43.1379 356.369 43.1379C338.112 43.1379 323.311 37.7345 323.311 31.069C323.311 24.4035 338.112 19 356.369 19C374.627 19 389.428 24.4035 389.428 31.069Z" fill="#FFD84C"/>
<path d="M326.617 31.069C326.617 37.7345 311.816 43.1379 293.558 43.1379C275.301 43.1379 260.5 37.7345 260.5 31.069C260.5 24.4035 275.301 19 293.558 19C311.816 19 326.617 24.4035 326.617 31.069Z" fill="#FFD84C"/>
<path d="M66.1168 31.069C66.1168 37.7345 51.316 43.1379 33.0584 43.1379C14.8007 43.1379 0 37.7345 0 31.069C0 24.4035 14.8007 19 33.0584 19C51.316 19 66.1168 24.4035 66.1168 31.069Z" fill="#FFD84C"/>
<path d="M260.5 31.069C260.5 37.7345 245.699 43.1379 227.442 43.1379C209.184 43.1379 194.383 37.7345 194.383 31.069C194.383 24.4035 209.184 19 227.442 19C245.699 19 260.5 24.4035 260.5 31.069Z" fill="#FFD84C"/>
<path d="M132.234 90.931C132.234 97.5965 117.433 103 99.1751 103C80.9175 103 66.1168 97.5965 66.1168 90.931C66.1168 84.2655 80.9175 78.8621 99.1751 78.8621C117.433 78.8621 132.234 84.2655 132.234 90.931Z" fill="#FFD84C"/>
<path d="M198.35 90.931C198.35 97.5965 183.55 103 165.292 103C147.034 103 132.234 97.5965 132.234 90.931C132.234 84.2655 147.034 78.8621 165.292 78.8621C183.55 78.8621 198.35 84.2655 198.35 90.931Z" fill="#FFD84C"/>
<path d="M521 90.931C521 97.5965 506.199 103 487.942 103C469.684 103 454.883 97.5965 454.883 90.931C454.883 84.2655 469.684 78.8621 487.942 78.8621C506.199 78.8621 521 84.2655 521 90.931Z" fill="#FFD84C"/>
<path d="M454.883 90.931C454.883 97.5965 440.083 103 421.825 103C403.567 103 388.767 97.5965 388.767 90.931C388.767 84.2655 403.567 78.8621 421.825 78.8621C440.083 78.8621 454.883 84.2655 454.883 90.931Z" fill="#FFD84C"/>
<path d="M389.428 90.931C389.428 97.5965 374.627 103 356.369 103C338.112 103 323.311 97.5965 323.311 90.931C323.311 84.2655 338.112 78.8621 356.369 78.8621C374.627 78.8621 389.428 84.2655 389.428 90.931Z" fill="#FFD84C"/>
<path d="M326.617 90.931C326.617 97.5965 311.816 103 293.558 103C275.301 103 260.5 97.5965 260.5 90.931C260.5 84.2655 275.301 78.8621 293.558 78.8621C311.816 78.8621 326.617 84.2655 326.617 90.931Z" fill="#FFD84C"/>
<path d="M66.1168 90.931C66.1168 97.5965 51.316 103 33.0584 103C14.8007 103 0 97.5965 0 90.931C0 84.2655 14.8007 78.8621 33.0584 78.8621C51.316 78.8621 66.1168 84.2655 66.1168 90.931Z" fill="#FFD84C"/>
<path d="M260.5 90.931C260.5 97.5965 245.699 103 227.442 103C209.184 103 194.383 97.5965 194.383 90.931C194.383 84.2655 209.184 78.8621 227.442 78.8621C245.699 78.8621 260.5 84.2655 260.5 90.931Z" fill="#FFD84C"/>
<path d="M0 0H521V61H0V0Z" fill="#FFD84C"/>
</svg>
