<svg width="1789" height="236" viewBox="0 0 1789 236" fill="none" xmlns="http://www.w3.org/2000/svg">
<g filter="url(#filter0_d)">
<path fill-rule="evenodd" clip-rule="evenodd" d="M12 44.8982V234L1777 234V61.3503C1777 41.6629 1757.88 25.703 1734.3 25.703C1710.71 25.703 1691.59 41.6629 1691.59 61.3503C1691.59 41.6629 1672.48 25.703 1648.89 25.703C1625.31 25.703 1606.19 41.6629 1606.19 61.3503C1606.19 41.6629 1587.07 25.703 1563.48 25.703C1545.03 25.703 1529.31 35.4757 1523.34 49.16C1517.38 35.4757 1501.66 25.703 1483.2 25.703C1459.62 25.703 1440.5 41.6629 1440.5 61.3503C1440.5 41.6629 1421.38 25.703 1397.8 25.703C1378.88 25.703 1362.84 35.9681 1357.23 50.1886C1351.62 35.9681 1335.58 25.703 1316.66 25.703C1295.14 25.703 1277.33 38.9989 1274.39 56.2895C1271.44 38.9989 1253.64 25.703 1232.11 25.703C1210.82 25.703 1193.18 38.7019 1189.94 55.7083C1188.73 36.9225 1170.1 22 1147.3 22C1124.89 22 1106.51 36.4078 1104.73 54.7313C1104.66 55.0555 1104.59 55.3811 1104.53 55.7083C1103.33 36.9225 1084.7 22 1061.89 22C1038.31 22 1019.19 37.9598 1019.19 57.6472C1019.19 37.9598 1000.07 22 976.485 22C958.03 22 942.309 31.7727 936.344 45.4569C930.379 31.7727 914.658 22 896.203 22C872.619 22 853.5 37.9598 853.5 57.6472C853.5 37.9598 834.381 22 810.797 22C791.883 22 775.841 32.265 770.229 46.4855C764.618 32.265 748.575 22 729.661 22C708.135 22 690.329 35.296 687.385 52.5867C684.442 35.296 666.635 22 645.109 22C621.525 22 602.406 37.9598 602.406 57.6472C602.406 37.9598 583.287 22 559.703 22C536.119 22 517 37.9598 517 57.6472C517 37.9598 497.881 22 474.297 22C450.713 22 431.594 37.9598 431.594 57.6472C431.594 37.9598 412.475 22 388.891 22C365.307 22 346.188 37.9598 346.188 57.6472C346.188 37.9598 327.069 22 303.485 22C285.03 22 269.309 31.7727 263.344 45.4569C257.379 31.7727 241.658 22 223.203 22C199.619 22 180.5 37.9598 180.5 57.6472C180.5 37.9598 161.381 22 137.797 22C118.883 22 102.841 32.265 97.2291 46.4854C91.6176 32.265 75.5753 22 56.6611 22C35.1349 22 17.3287 35.296 14.3851 52.5867C13.9307 49.9172 13.1219 47.343 12 44.8982Z" fill="#FFD84C"/>
</g>
<defs>
<filter id="filter0_d" x="0" y="0" width="1789" height="236" filterUnits="userSpaceOnUse" color-interpolation-filters="sRGB">
<feFlood flood-opacity="0" result="BackgroundImageFix"/>
<feColorMatrix in="SourceAlpha" type="matrix" values="0 0 0 0 0 0 0 0 0 0 0 0 0 0 0 0 0 0 127 0"/>
<feOffset dy="-10"/>
<feGaussianBlur stdDeviation="6"/>
<feColorMatrix type="matrix" values="0 0 0 0 0 0 0 0 0 0 0 0 0 0 0 0 0 0 0.25 0"/>
<feBlend mode="normal" in2="BackgroundImageFix" result="effect1_dropShadow"/>
<feBlend mode="normal" in="SourceGraphic" in2="effect1_dropShadow" result="shape"/>
</filter>
</defs>
</svg>
