<svg width="552" height="288" viewBox="0 0 552 288" fill="none" xmlns="http://www.w3.org/2000/svg">
<g filter="url(#filter0_d)">
<path d="M13 51.0426H539V175.254H13V51.0426Z" fill="#FFD84C"/>
<path d="M146.503 51.0426C146.503 64.8733 131.56 76.0852 113.127 76.0852C94.6941 76.0852 79.7513 64.8733 79.7513 51.0426C79.7513 37.212 94.6941 26 113.127 26C131.56 26 146.503 37.212 146.503 51.0426Z" fill="#FFD84C"/>
<path d="M213.254 51.0426C213.254 64.8733 198.311 76.0852 179.878 76.0852C161.445 76.0852 146.503 64.8733 146.503 51.0426C146.503 37.212 161.445 26 179.878 26C198.311 26 213.254 37.212 213.254 51.0426Z" fill="#FFD84C"/>
<path d="M539 51.0426C539 64.8733 524.057 76.0852 505.624 76.0852C487.192 76.0852 472.249 64.8733 472.249 51.0426C472.249 37.212 487.192 26 505.624 26C524.057 26 539 37.212 539 51.0426Z" fill="#FFD84C"/>
<path d="M472.249 51.0426C472.249 64.8733 457.306 76.0852 438.873 76.0852C420.44 76.0852 405.497 64.8733 405.497 51.0426C405.497 37.212 420.44 26 438.873 26C457.306 26 472.249 37.212 472.249 51.0426Z" fill="#FFD84C"/>
<path d="M406.165 51.0426C406.165 64.8733 391.222 76.0852 372.789 76.0852C354.357 76.0852 339.414 64.8733 339.414 51.0426C339.414 37.212 354.357 26 372.789 26C391.222 26 406.165 37.212 406.165 51.0426Z" fill="#FFD84C"/>
<path d="M342.751 51.0426C342.751 64.8733 327.809 76.0852 309.376 76.0852C290.943 76.0852 276 64.8733 276 51.0426C276 37.212 290.943 26 309.376 26C327.809 26 342.751 37.212 342.751 51.0426Z" fill="#FFD84C"/>
<path d="M79.7513 51.0426C79.7513 64.8733 64.8085 76.0852 46.3756 76.0852C27.9428 76.0852 13 64.8733 13 51.0426C13 37.212 27.9428 26 46.3756 26C64.8085 26 79.7513 37.212 79.7513 51.0426Z" fill="#FFD84C"/>
<path d="M276 51.0426C276 64.8733 261.057 76.0852 242.624 76.0852C224.192 76.0852 209.249 64.8733 209.249 51.0426C209.249 37.212 224.192 26 242.624 26C261.057 26 276 37.212 276 51.0426Z" fill="#FFD84C"/>
<path d="M146.503 175.254C146.503 189.085 131.56 200.297 113.127 200.297C94.6941 200.297 79.7513 189.085 79.7513 175.254C79.7513 161.423 94.6941 150.211 113.127 150.211C131.56 150.211 146.503 161.423 146.503 175.254Z" fill="#FFD84C"/>
<path d="M213.254 175.254C213.254 189.085 198.311 200.297 179.878 200.297C161.445 200.297 146.503 189.085 146.503 175.254C146.503 161.423 161.445 150.211 179.878 150.211C198.311 150.211 213.254 161.423 213.254 175.254Z" fill="#FFD84C"/>
<path d="M539 175.254C539 189.085 524.057 200.297 505.624 200.297C487.192 200.297 472.249 189.085 472.249 175.254C472.249 161.423 487.192 150.211 505.624 150.211C524.057 150.211 539 161.423 539 175.254Z" fill="#FFD84C"/>
<path d="M472.249 175.254C472.249 189.085 457.306 200.297 438.873 200.297C420.44 200.297 405.497 189.085 405.497 175.254C405.497 161.423 420.44 150.211 438.873 150.211C457.306 150.211 472.249 161.423 472.249 175.254Z" fill="#FFD84C"/>
<path d="M406.165 175.254C406.165 189.085 391.222 200.297 372.789 200.297C354.357 200.297 339.414 189.085 339.414 175.254C339.414 161.423 354.357 150.211 372.789 150.211C391.222 150.211 406.165 161.423 406.165 175.254Z" fill="#FFD84C"/>
<path d="M342.751 175.254C342.751 189.085 327.809 200.297 309.376 200.297C290.943 200.297 276 189.085 276 175.254C276 161.423 290.943 150.211 309.376 150.211C327.809 150.211 342.751 161.423 342.751 175.254Z" fill="#FFD84C"/>
<path d="M79.7513 175.254C79.7513 189.085 64.8085 200.297 46.3756 200.297C27.9428 200.297 13 189.085 13 175.254C13 161.423 27.9428 150.211 46.3756 150.211C64.8085 150.211 79.7513 161.423 79.7513 175.254Z" fill="#FFD84C"/>
<path d="M276 175.254C276 189.085 261.057 200.297 242.624 200.297C224.192 200.297 209.249 189.085 209.249 175.254C209.249 161.423 224.192 150.211 242.624 150.211C261.057 150.211 276 161.423 276 175.254Z" fill="#FFD84C"/>
<path d="M13 98.161H539V288H13V98.161Z" fill="#FFD84C"/>
</g>
<defs>
<filter id="filter0_d" x="0" y="0" width="552" height="288" filterUnits="userSpaceOnUse" color-interpolation-filters="sRGB">
<feFlood flood-opacity="0" result="BackgroundImageFix"/>
<feColorMatrix in="SourceAlpha" type="matrix" values="0 0 0 0 0 0 0 0 0 0 0 0 0 0 0 0 0 0 127 0"/>
<feOffset dy="-13"/>
<feGaussianBlur stdDeviation="6.5"/>
<feColorMatrix type="matrix" values="0 0 0 0 0 0 0 0 0 0 0 0 0 0 0 0 0 0 0.25 0"/>
<feBlend mode="normal" in2="BackgroundImageFix" result="effect1_dropShadow"/>
<feBlend mode="normal" in="SourceGraphic" in2="effect1_dropShadow" result="shape"/>
</filter>
</defs>
</svg>
