<svg width="1765" height="213" viewBox="0 0 1765 213" fill="none" xmlns="http://www.w3.org/2000/svg">
<g filter="url(#filter0_d)">
<path d="M0 0H1765V98H0V0Z" fill="#FFD84C"/>
<path d="M757.78 98H0V176.335C0 185.173 19.1188 192.338 42.703 192.338C66.2873 192.338 85.4061 185.173 85.4061 176.335C85.4061 185.173 104.525 192.338 128.109 192.338C151.693 192.338 170.812 185.173 170.812 176.335C170.812 185.173 189.931 192.338 213.515 192.338C231.97 192.338 247.691 187.951 253.656 181.808C259.621 187.951 275.342 192.338 293.797 192.338C317.381 192.338 336.5 185.173 336.5 176.335C336.5 185.173 355.619 192.338 379.203 192.338C398.117 192.338 414.159 187.73 419.771 181.346C425.382 187.73 441.425 192.338 460.339 192.338C481.865 192.338 499.671 186.369 502.615 178.607C505.559 186.369 523.365 192.338 544.891 192.338C566.175 192.338 583.823 186.502 587.062 178.868C588.268 187.301 606.898 194 629.703 194C652.111 194 670.488 187.532 672.265 179.307C672.338 179.161 672.406 179.015 672.468 178.868C673.674 187.301 692.304 194 715.109 194C738.693 194 757.812 186.835 757.812 177.998C757.812 186.835 776.931 194 800.515 194C818.97 194 834.691 189.613 840.656 183.47C846.621 189.613 862.342 194 880.797 194C904.381 194 923.5 186.835 923.5 177.998C923.5 186.835 942.619 194 966.203 194C985.117 194 1001.16 189.392 1006.77 183.008C1012.38 189.392 1028.42 194 1047.34 194C1068.87 194 1086.67 188.031 1089.61 180.269C1092.56 188.031 1110.36 194 1131.89 194C1155.48 194 1174.59 186.835 1174.59 177.998C1174.59 186.835 1193.71 194 1217.3 194C1240.88 194 1260 186.835 1260 177.998C1260 186.835 1279.12 194 1302.7 194C1326.29 194 1345.41 186.835 1345.41 177.998C1345.41 186.835 1364.52 194 1388.11 194C1411.69 194 1430.81 186.835 1430.81 177.998C1430.81 186.835 1449.93 194 1473.52 194C1491.97 194 1507.69 189.613 1513.66 183.47C1519.62 189.613 1535.34 194 1553.8 194C1577.38 194 1596.5 186.835 1596.5 177.998C1596.5 186.835 1615.62 194 1639.2 194C1658.12 194 1674.16 189.392 1679.77 183.008C1685.38 189.392 1701.42 194 1720.34 194C1741.87 194 1759.67 188.031 1762.61 180.269C1763.07 181.468 1763.88 182.623 1765 183.721V98H1596.53C1596.51 98.2076 1596.5 98.4162 1596.5 98.6257C1596.5 98.4162 1596.49 98.2076 1596.47 98H1430.84C1430.82 98.2076 1430.81 98.4162 1430.81 98.6257C1430.81 98.4162 1430.8 98.2076 1430.78 98H1345.44C1345.42 98.2076 1345.41 98.4162 1345.41 98.6257C1345.41 98.4162 1345.4 98.2076 1345.37 98H1260.03C1260.01 98.2076 1260 98.4162 1260 98.6257C1260 98.4162 1259.99 98.2076 1259.97 98H1174.63C1174.6 98.2076 1174.59 98.4162 1174.59 98.6257C1174.59 98.4162 1174.58 98.2076 1174.56 98H923.532C923.511 98.2076 923.5 98.4162 923.5 98.6257C923.5 98.4162 923.489 98.2076 923.468 98H757.844C757.823 98.2076 757.812 98.4162 757.812 98.6257C757.812 98.4162 757.801 98.2076 757.78 98Z" fill="#FFD84C"/>
</g>
<defs>
<filter id="filter0_d" x="0" y="0" width="1765" height="213" filterUnits="userSpaceOnUse" color-interpolation-filters="sRGB">
<feFlood flood-opacity="0" result="BackgroundImageFix"/>
<feColorMatrix in="SourceAlpha" type="matrix" values="0 0 0 0 0 0 0 0 0 0 0 0 0 0 0 0 0 0 127 0"/>
<feOffset dy="19"/>
<feColorMatrix type="matrix" values="0 0 0 0 0 0 0 0 0 0 0 0 0 0 0 0 0 0 0.25 0"/>
<feBlend mode="normal" in2="BackgroundImageFix" result="effect1_dropShadow"/>
<feBlend mode="normal" in="SourceGraphic" in2="effect1_dropShadow" result="shape"/>
</filter>
</defs>
</svg>
