<svg width="1765" height="488" viewBox="0 0 1765 488" fill="none" xmlns="http://www.w3.org/2000/svg">
<path fill-rule="evenodd" clip-rule="evenodd" d="M0 22.8982V163V212V488H1765V212V163V39.3503C1765 19.6629 1745.88 3.70305 1722.3 3.70305C1698.71 3.70305 1679.59 19.6629 1679.59 39.3503C1679.59 19.6629 1660.48 3.70305 1636.89 3.70305C1613.31 3.70305 1594.19 19.6629 1594.19 39.3503C1594.19 19.6629 1575.07 3.70305 1551.48 3.70305C1533.03 3.70305 1517.31 13.4757 1511.34 27.16C1505.38 13.4757 1489.66 3.70305 1471.2 3.70305C1447.62 3.70305 1428.5 19.6629 1428.5 39.3503C1428.5 19.6629 1409.38 3.70305 1385.8 3.70305C1366.88 3.70305 1350.84 13.9681 1345.23 28.1886C1339.62 13.9681 1323.58 3.70305 1304.66 3.70305C1283.14 3.70305 1265.33 16.9989 1262.39 34.2895C1259.44 16.9989 1241.64 3.70305 1220.11 3.70305C1198.82 3.70305 1181.18 16.7019 1177.94 33.7083C1176.73 14.9225 1158.1 0 1135.3 0C1112.89 0 1094.51 14.4078 1092.73 32.7313C1092.66 33.0555 1092.59 33.3811 1092.53 33.7083C1091.33 14.9225 1072.7 0 1049.89 0C1026.31 0 1007.19 15.9598 1007.19 35.6472C1007.19 15.9598 988.069 0 964.485 0C946.03 0 930.309 9.77271 924.344 23.4569C918.379 9.77271 902.658 0 884.203 0C860.619 0 841.5 15.9598 841.5 35.6472C841.5 15.9598 822.381 0 798.797 0C779.883 0 763.841 10.265 758.229 24.4855C752.618 10.265 736.575 0 717.661 0C696.135 0 678.329 13.296 675.385 30.5867C672.442 13.296 654.635 0 633.109 0C609.525 0 590.406 15.9598 590.406 35.6472C590.406 15.9598 571.287 0 547.703 0C524.119 0 505 15.9598 505 35.6472C505 15.9598 485.881 0 462.297 0C438.713 0 419.594 15.9598 419.594 35.6472C419.594 15.9598 400.475 0 376.891 0C353.307 0 334.188 15.9598 334.188 35.6472C334.188 15.9598 315.069 0 291.485 0C273.03 0 257.309 9.77267 251.344 23.4569C245.379 9.77267 229.658 0 211.203 0C187.619 0 168.5 15.9598 168.5 35.6472C168.5 15.9598 149.381 0 125.797 0C106.883 0 90.8407 10.265 85.2291 24.4854C79.6176 10.265 63.5753 0 44.6611 0C23.1349 0 5.32874 13.296 2.38513 30.5867C1.93066 27.9172 1.12195 25.343 0 22.8982Z" fill="#FFD84C"/>
</svg>
